<mxfile host="app.diagrams.net" modified="2024-06-09T18:34:31.673Z" agent="Mozilla/5.0 (Windows NT 10.0; Win64; x64) AppleWebKit/537.36 (KHTML, like Gecko) Chrome/125.0.0.0 Safari/537.36" etag="KSkNo0IlyA_SxdT9Gu2B" version="24.5.2" type="device">
  <diagram name="Strona-1" id="lYA9xT5RgmgEk0NPdWA2">
    <mxGraphModel dx="2514" dy="936" grid="1" gridSize="10" guides="1" tooltips="1" connect="1" arrows="1" fold="1" page="1" pageScale="1" pageWidth="827" pageHeight="1169" math="0" shadow="0">
      <root>
        <mxCell id="0" />
        <mxCell id="1" parent="0" />
        <mxCell id="O7UDizKWBBg_09-T7Ho4-1" value="Strona logowania rejestracji" style="rounded=0;whiteSpace=wrap;html=1;fillColor=#d5e8d4;strokeColor=#82b366;" parent="1" vertex="1">
          <mxGeometry x="360" y="80" width="120" height="40" as="geometry" />
        </mxCell>
        <mxCell id="O7UDizKWBBg_09-T7Ho4-2" value="" style="endArrow=classic;html=1;rounded=0;fontSize=12;startSize=8;endSize=8;exitX=0.75;exitY=1;exitDx=0;exitDy=0;entryX=0.75;entryY=0;entryDx=0;entryDy=0;" parent="1" source="O7UDizKWBBg_09-T7Ho4-1" target="O7UDizKWBBg_09-T7Ho4-1" edge="1">
          <mxGeometry width="50" height="50" relative="1" as="geometry">
            <mxPoint x="670" y="330" as="sourcePoint" />
            <mxPoint x="440" y="40" as="targetPoint" />
            <Array as="points">
              <mxPoint x="450" y="180" />
              <mxPoint x="540" y="180" />
              <mxPoint x="540" y="40" />
              <mxPoint x="450" y="40" />
            </Array>
          </mxGeometry>
        </mxCell>
        <mxCell id="O7UDizKWBBg_09-T7Ho4-3" value="Rejestracja" style="edgeLabel;html=1;align=center;verticalAlign=middle;resizable=0;points=[];fontSize=12;" parent="O7UDizKWBBg_09-T7Ho4-2" vertex="1" connectable="0">
          <mxGeometry x="0.585" y="1" relative="1" as="geometry">
            <mxPoint as="offset" />
          </mxGeometry>
        </mxCell>
        <mxCell id="O7UDizKWBBg_09-T7Ho4-4" value="User panel" style="rounded=0;whiteSpace=wrap;html=1;" parent="1" vertex="1">
          <mxGeometry x="200" y="240" width="120" height="40" as="geometry" />
        </mxCell>
        <mxCell id="O7UDizKWBBg_09-T7Ho4-5" value="Admin panel" style="rounded=0;whiteSpace=wrap;html=1;" parent="1" vertex="1">
          <mxGeometry x="520" y="240" width="120" height="40" as="geometry" />
        </mxCell>
        <mxCell id="O7UDizKWBBg_09-T7Ho4-6" value="" style="endArrow=classic;html=1;rounded=0;fontSize=12;startSize=8;endSize=8;exitX=0;exitY=1;exitDx=0;exitDy=0;entryX=0.75;entryY=0;entryDx=0;entryDy=0;" parent="1" source="O7UDizKWBBg_09-T7Ho4-1" target="O7UDizKWBBg_09-T7Ho4-4" edge="1">
          <mxGeometry width="50" height="50" relative="1" as="geometry">
            <mxPoint x="670" y="330" as="sourcePoint" />
            <mxPoint x="720" y="280" as="targetPoint" />
            <Array as="points">
              <mxPoint x="360" y="160" />
              <mxPoint x="290" y="160" />
            </Array>
          </mxGeometry>
        </mxCell>
        <mxCell id="O7UDizKWBBg_09-T7Ho4-7" value="Logowanie user" style="edgeLabel;html=1;align=center;verticalAlign=middle;resizable=0;points=[];fontSize=12;" parent="O7UDizKWBBg_09-T7Ho4-6" vertex="1" connectable="0">
          <mxGeometry x="-0.7053" y="3" relative="1" as="geometry">
            <mxPoint x="-13" y="-8" as="offset" />
          </mxGeometry>
        </mxCell>
        <mxCell id="O7UDizKWBBg_09-T7Ho4-8" value="" style="endArrow=classic;html=1;rounded=0;fontSize=12;startSize=8;endSize=8;exitX=0.5;exitY=1;exitDx=0;exitDy=0;entryX=0.25;entryY=0;entryDx=0;entryDy=0;" parent="1" source="O7UDizKWBBg_09-T7Ho4-1" target="O7UDizKWBBg_09-T7Ho4-5" edge="1">
          <mxGeometry width="50" height="50" relative="1" as="geometry">
            <mxPoint x="670" y="330" as="sourcePoint" />
            <mxPoint x="420" y="210" as="targetPoint" />
            <Array as="points">
              <mxPoint x="420" y="220" />
              <mxPoint x="550" y="220" />
            </Array>
          </mxGeometry>
        </mxCell>
        <mxCell id="O7UDizKWBBg_09-T7Ho4-9" value="Logowanie admin" style="edgeLabel;html=1;align=center;verticalAlign=middle;resizable=0;points=[];fontSize=12;" parent="O7UDizKWBBg_09-T7Ho4-8" vertex="1" connectable="0">
          <mxGeometry x="-0.3524" y="4" relative="1" as="geometry">
            <mxPoint x="56" y="9" as="offset" />
          </mxGeometry>
        </mxCell>
        <mxCell id="O7UDizKWBBg_09-T7Ho4-10" value="Edycja danych osobowych" style="rounded=0;whiteSpace=wrap;html=1;fillColor=#f8cecc;strokeColor=#b85450;" parent="1" vertex="1">
          <mxGeometry x="360" y="360" width="120" height="40" as="geometry" />
        </mxCell>
        <mxCell id="O7UDizKWBBg_09-T7Ho4-11" value="" style="endArrow=classic;html=1;rounded=0;fontSize=12;startSize=8;endSize=8;exitX=0;exitY=1;exitDx=0;exitDy=0;entryX=0.75;entryY=0;entryDx=0;entryDy=0;" parent="1" source="O7UDizKWBBg_09-T7Ho4-5" target="O7UDizKWBBg_09-T7Ho4-10" edge="1">
          <mxGeometry width="50" height="50" relative="1" as="geometry">
            <mxPoint x="670" y="330" as="sourcePoint" />
            <mxPoint x="720" y="280" as="targetPoint" />
            <Array as="points">
              <mxPoint x="520" y="320" />
              <mxPoint x="450" y="320" />
            </Array>
          </mxGeometry>
        </mxCell>
        <mxCell id="O7UDizKWBBg_09-T7Ho4-13" value="" style="endArrow=classic;html=1;rounded=0;fontSize=12;startSize=8;endSize=8;exitX=1;exitY=1;exitDx=0;exitDy=0;entryX=0.342;entryY=0.075;entryDx=0;entryDy=0;entryPerimeter=0;" parent="1" source="O7UDizKWBBg_09-T7Ho4-4" target="O7UDizKWBBg_09-T7Ho4-10" edge="1">
          <mxGeometry width="50" height="50" relative="1" as="geometry">
            <mxPoint x="670" y="330" as="sourcePoint" />
            <mxPoint x="720" y="280" as="targetPoint" />
            <Array as="points">
              <mxPoint x="320" y="320" />
              <mxPoint x="400" y="320" />
            </Array>
          </mxGeometry>
        </mxCell>
        <mxCell id="O7UDizKWBBg_09-T7Ho4-14" value="" style="endArrow=classic;html=1;rounded=0;fontSize=12;startSize=8;endSize=8;entryX=0.5;entryY=0;entryDx=0;entryDy=0;exitX=0.5;exitY=1;exitDx=0;exitDy=0;" parent="1" source="O7UDizKWBBg_09-T7Ho4-5" target="O7UDizKWBBg_09-T7Ho4-16" edge="1">
          <mxGeometry width="50" height="50" relative="1" as="geometry">
            <mxPoint x="550" y="280" as="sourcePoint" />
            <mxPoint x="550" y="340" as="targetPoint" />
          </mxGeometry>
        </mxCell>
        <mxCell id="O7UDizKWBBg_09-T7Ho4-16" value="Konfigurator gatunków" style="swimlane;fontStyle=0;childLayout=stackLayout;horizontal=1;startSize=30;horizontalStack=0;resizeParent=1;resizeParentMax=0;resizeLast=0;collapsible=1;marginBottom=0;whiteSpace=wrap;html=1;" parent="1" vertex="1">
          <mxGeometry x="510" y="360" width="140" height="150" as="geometry" />
        </mxCell>
        <mxCell id="O7UDizKWBBg_09-T7Ho4-17" value="Nazwa gatunku foto" style="text;strokeColor=#9673a6;fillColor=#e1d5e7;align=left;verticalAlign=middle;spacingLeft=4;spacingRight=4;overflow=hidden;points=[[0,0.5],[1,0.5]];portConstraint=eastwest;rotatable=0;whiteSpace=wrap;html=1;" parent="O7UDizKWBBg_09-T7Ho4-16" vertex="1">
          <mxGeometry y="30" width="140" height="30" as="geometry" />
        </mxCell>
        <mxCell id="O7UDizKWBBg_09-T7Ho4-18" value="potrzeby (wymagania środowiskowe)" style="text;strokeColor=#9673a6;fillColor=#e1d5e7;align=left;verticalAlign=middle;spacingLeft=4;spacingRight=4;overflow=hidden;points=[[0,0.5],[1,0.5]];portConstraint=eastwest;rotatable=0;whiteSpace=wrap;html=1;" parent="O7UDizKWBBg_09-T7Ho4-16" vertex="1">
          <mxGeometry y="60" width="140" height="30" as="geometry" />
        </mxCell>
        <mxCell id="O7UDizKWBBg_09-T7Ho4-19" value="Konflikty (jakich ryb nie lubi)" style="text;strokeColor=#9673a6;fillColor=#e1d5e7;align=left;verticalAlign=middle;spacingLeft=4;spacingRight=4;overflow=hidden;points=[[0,0.5],[1,0.5]];portConstraint=eastwest;rotatable=0;whiteSpace=wrap;html=1;" parent="O7UDizKWBBg_09-T7Ho4-16" vertex="1">
          <mxGeometry y="90" width="140" height="30" as="geometry" />
        </mxCell>
        <mxCell id="JS4E6NhKO0ZnO-5LUeNW-4" value="Sprawdzanie wymiaru ryby" style="text;align=left;verticalAlign=middle;spacingLeft=4;spacingRight=4;overflow=hidden;points=[[0,0.5],[1,0.5]];portConstraint=eastwest;rotatable=0;whiteSpace=wrap;html=1;" vertex="1" parent="O7UDizKWBBg_09-T7Ho4-16">
          <mxGeometry y="120" width="140" height="30" as="geometry" />
        </mxCell>
        <mxCell id="O7UDizKWBBg_09-T7Ho4-20" value="Kreator podpowiedzi" style="swimlane;fontStyle=0;childLayout=stackLayout;horizontal=1;startSize=30;horizontalStack=0;resizeParent=1;resizeParentMax=0;resizeLast=0;collapsible=1;marginBottom=0;whiteSpace=wrap;html=1;" parent="1" vertex="1">
          <mxGeometry x="680" y="360" width="140" height="120" as="geometry" />
        </mxCell>
        <mxCell id="O7UDizKWBBg_09-T7Ho4-21" value="warunek" style="text;strokeColor=none;fillColor=none;align=left;verticalAlign=middle;spacingLeft=4;spacingRight=4;overflow=hidden;points=[[0,0.5],[1,0.5]];portConstraint=eastwest;rotatable=0;whiteSpace=wrap;html=1;" parent="O7UDizKWBBg_09-T7Ho4-20" vertex="1">
          <mxGeometry y="30" width="140" height="30" as="geometry" />
        </mxCell>
        <mxCell id="O7UDizKWBBg_09-T7Ho4-22" value="porada" style="text;strokeColor=none;fillColor=none;align=left;verticalAlign=middle;spacingLeft=4;spacingRight=4;overflow=hidden;points=[[0,0.5],[1,0.5]];portConstraint=eastwest;rotatable=0;whiteSpace=wrap;html=1;" parent="O7UDizKWBBg_09-T7Ho4-20" vertex="1">
          <mxGeometry y="60" width="140" height="30" as="geometry" />
        </mxCell>
        <mxCell id="JS4E6NhKO0ZnO-5LUeNW-14" value="Grzegorz" style="text;strokeColor=none;fillColor=none;align=left;verticalAlign=middle;spacingLeft=4;spacingRight=4;overflow=hidden;points=[[0,0.5],[1,0.5]];portConstraint=eastwest;rotatable=0;whiteSpace=wrap;html=1;" vertex="1" parent="O7UDizKWBBg_09-T7Ho4-20">
          <mxGeometry y="90" width="140" height="30" as="geometry" />
        </mxCell>
        <mxCell id="O7UDizKWBBg_09-T7Ho4-25" value="" style="endArrow=classic;html=1;rounded=0;fontSize=12;startSize=8;endSize=8;exitX=0.75;exitY=1;exitDx=0;exitDy=0;entryX=0.25;entryY=0;entryDx=0;entryDy=0;" parent="1" source="O7UDizKWBBg_09-T7Ho4-5" target="O7UDizKWBBg_09-T7Ho4-20" edge="1">
          <mxGeometry width="50" height="50" relative="1" as="geometry">
            <mxPoint x="670" y="330" as="sourcePoint" />
            <mxPoint x="720" y="280" as="targetPoint" />
            <Array as="points">
              <mxPoint x="610" y="320" />
              <mxPoint x="715" y="320" />
            </Array>
          </mxGeometry>
        </mxCell>
        <mxCell id="O7UDizKWBBg_09-T7Ho4-26" value="Kreator rodzajów akwarium" style="swimlane;fontStyle=0;childLayout=stackLayout;horizontal=1;startSize=30;horizontalStack=0;resizeParent=1;resizeParentMax=0;resizeLast=0;collapsible=1;marginBottom=0;whiteSpace=wrap;html=1;fillColor=#f8cecc;strokeColor=#b85450;" parent="1" vertex="1">
          <mxGeometry x="840" y="360" width="140" height="90" as="geometry" />
        </mxCell>
        <mxCell id="O7UDizKWBBg_09-T7Ho4-27" value="Wielkość" style="text;strokeColor=#b85450;fillColor=#f8cecc;align=left;verticalAlign=middle;spacingLeft=4;spacingRight=4;overflow=hidden;points=[[0,0.5],[1,0.5]];portConstraint=eastwest;rotatable=0;whiteSpace=wrap;html=1;" parent="O7UDizKWBBg_09-T7Ho4-26" vertex="1">
          <mxGeometry y="30" width="140" height="30" as="geometry" />
        </mxCell>
        <mxCell id="O7UDizKWBBg_09-T7Ho4-28" value="Wyposażenie" style="text;strokeColor=#b85450;fillColor=#f8cecc;align=left;verticalAlign=middle;spacingLeft=4;spacingRight=4;overflow=hidden;points=[[0,0.5],[1,0.5]];portConstraint=eastwest;rotatable=0;whiteSpace=wrap;html=1;" parent="O7UDizKWBBg_09-T7Ho4-26" vertex="1">
          <mxGeometry y="60" width="140" height="30" as="geometry" />
        </mxCell>
        <mxCell id="O7UDizKWBBg_09-T7Ho4-31" value="" style="endArrow=classic;html=1;rounded=0;fontSize=12;startSize=8;endSize=8;exitX=1;exitY=1;exitDx=0;exitDy=0;entryX=0.5;entryY=0;entryDx=0;entryDy=0;" parent="1" source="O7UDizKWBBg_09-T7Ho4-5" target="O7UDizKWBBg_09-T7Ho4-26" edge="1">
          <mxGeometry width="50" height="50" relative="1" as="geometry">
            <mxPoint x="670" y="330" as="sourcePoint" />
            <mxPoint x="720" y="280" as="targetPoint" />
            <Array as="points">
              <mxPoint x="640" y="300" />
              <mxPoint x="910" y="300" />
            </Array>
          </mxGeometry>
        </mxCell>
        <mxCell id="O7UDizKWBBg_09-T7Ho4-32" value="AquaMaker" style="swimlane;fontStyle=0;childLayout=stackLayout;horizontal=1;startSize=30;horizontalStack=0;resizeParent=1;resizeParentMax=0;resizeLast=0;collapsible=1;marginBottom=0;whiteSpace=wrap;html=1;" parent="1" vertex="1">
          <mxGeometry x="190" y="360" width="140" height="90" as="geometry" />
        </mxCell>
        <mxCell id="O7UDizKWBBg_09-T7Ho4-33" value="wymiary" style="text;strokeColor=#9673a6;fillColor=#e1d5e7;align=left;verticalAlign=middle;spacingLeft=4;spacingRight=4;overflow=hidden;points=[[0,0.5],[1,0.5]];portConstraint=eastwest;rotatable=0;whiteSpace=wrap;html=1;" parent="O7UDizKWBBg_09-T7Ho4-32" vertex="1">
          <mxGeometry y="30" width="140" height="30" as="geometry" />
        </mxCell>
        <mxCell id="O7UDizKWBBg_09-T7Ho4-34" value="Wyposażenie" style="text;strokeColor=none;fillColor=none;align=left;verticalAlign=middle;spacingLeft=4;spacingRight=4;overflow=hidden;points=[[0,0.5],[1,0.5]];portConstraint=eastwest;rotatable=0;whiteSpace=wrap;html=1;" parent="O7UDizKWBBg_09-T7Ho4-32" vertex="1">
          <mxGeometry y="60" width="140" height="30" as="geometry" />
        </mxCell>
        <mxCell id="O7UDizKWBBg_09-T7Ho4-36" value="" style="endArrow=classic;html=1;rounded=0;fontSize=12;startSize=8;endSize=8;exitX=0.75;exitY=1;exitDx=0;exitDy=0;entryX=0.75;entryY=0;entryDx=0;entryDy=0;" parent="1" source="O7UDizKWBBg_09-T7Ho4-4" target="O7UDizKWBBg_09-T7Ho4-32" edge="1">
          <mxGeometry width="50" height="50" relative="1" as="geometry">
            <mxPoint x="180" y="330" as="sourcePoint" />
            <mxPoint x="230" y="280" as="targetPoint" />
          </mxGeometry>
        </mxCell>
        <mxCell id="O7UDizKWBBg_09-T7Ho4-37" value="AquaLife" style="swimlane;fontStyle=0;childLayout=stackLayout;horizontal=1;startSize=30;horizontalStack=0;resizeParent=1;resizeParentMax=0;resizeLast=0;collapsible=1;marginBottom=0;whiteSpace=wrap;html=1;" parent="1" vertex="1">
          <mxGeometry x="20" y="360" width="140" height="120" as="geometry" />
        </mxCell>
        <mxCell id="O7UDizKWBBg_09-T7Ho4-38" value="Dodanie ryb w zależności od akwarium" style="text;strokeColor=none;fillColor=none;align=left;verticalAlign=middle;spacingLeft=4;spacingRight=4;overflow=hidden;points=[[0,0.5],[1,0.5]];portConstraint=eastwest;rotatable=0;whiteSpace=wrap;html=1;" parent="O7UDizKWBBg_09-T7Ho4-37" vertex="1">
          <mxGeometry y="30" width="140" height="30" as="geometry" />
        </mxCell>
        <mxCell id="O7UDizKWBBg_09-T7Ho4-39" value="Monitoring życia ryby" style="text;strokeColor=none;fillColor=none;align=left;verticalAlign=middle;spacingLeft=4;spacingRight=4;overflow=hidden;points=[[0,0.5],[1,0.5]];portConstraint=eastwest;rotatable=0;whiteSpace=wrap;html=1;" parent="O7UDizKWBBg_09-T7Ho4-37" vertex="1">
          <mxGeometry y="60" width="140" height="30" as="geometry" />
        </mxCell>
        <mxCell id="JS4E6NhKO0ZnO-5LUeNW-6" value="Mateusz" style="text;strokeColor=none;fillColor=none;align=left;verticalAlign=middle;spacingLeft=4;spacingRight=4;overflow=hidden;points=[[0,0.5],[1,0.5]];portConstraint=eastwest;rotatable=0;whiteSpace=wrap;html=1;" vertex="1" parent="O7UDizKWBBg_09-T7Ho4-37">
          <mxGeometry y="90" width="140" height="30" as="geometry" />
        </mxCell>
        <mxCell id="O7UDizKWBBg_09-T7Ho4-41" value="" style="endArrow=classic;html=1;rounded=0;fontSize=12;startSize=8;endSize=8;exitX=0.5;exitY=1;exitDx=0;exitDy=0;entryX=0.75;entryY=0;entryDx=0;entryDy=0;" parent="1" source="O7UDizKWBBg_09-T7Ho4-4" target="O7UDizKWBBg_09-T7Ho4-37" edge="1">
          <mxGeometry width="50" height="50" relative="1" as="geometry">
            <mxPoint x="180" y="330" as="sourcePoint" />
            <mxPoint x="230" y="280" as="targetPoint" />
            <Array as="points">
              <mxPoint x="260" y="320" />
              <mxPoint x="125" y="320" />
            </Array>
          </mxGeometry>
        </mxCell>
        <mxCell id="O7UDizKWBBg_09-T7Ho4-42" value="AquaDecorator" style="swimlane;fontStyle=0;childLayout=stackLayout;horizontal=1;startSize=30;horizontalStack=0;resizeParent=1;resizeParentMax=0;resizeLast=0;collapsible=1;marginBottom=0;whiteSpace=wrap;html=1;" parent="1" vertex="1">
          <mxGeometry x="-170" y="360" width="140" height="90" as="geometry" />
        </mxCell>
        <mxCell id="O7UDizKWBBg_09-T7Ho4-43" value="Dekoracje w akwarium" style="text;strokeColor=#9673a6;fillColor=#e1d5e7;align=left;verticalAlign=middle;spacingLeft=4;spacingRight=4;overflow=hidden;points=[[0,0.5],[1,0.5]];portConstraint=eastwest;rotatable=0;whiteSpace=wrap;html=1;" parent="O7UDizKWBBg_09-T7Ho4-42" vertex="1">
          <mxGeometry y="30" width="140" height="30" as="geometry" />
        </mxCell>
        <mxCell id="O7UDizKWBBg_09-T7Ho4-44" value="Podłoże zależne od rodzaju ryb w akwarium" style="text;strokeColor=none;fillColor=none;align=left;verticalAlign=middle;spacingLeft=4;spacingRight=4;overflow=hidden;points=[[0,0.5],[1,0.5]];portConstraint=eastwest;rotatable=0;whiteSpace=wrap;html=1;" parent="O7UDizKWBBg_09-T7Ho4-42" vertex="1">
          <mxGeometry y="60" width="140" height="30" as="geometry" />
        </mxCell>
        <mxCell id="O7UDizKWBBg_09-T7Ho4-46" value="" style="endArrow=classic;html=1;rounded=0;fontSize=12;startSize=8;endSize=8;exitX=0.308;exitY=1;exitDx=0;exitDy=0;exitPerimeter=0;entryX=1;entryY=0;entryDx=0;entryDy=0;" parent="1" source="O7UDizKWBBg_09-T7Ho4-4" target="O7UDizKWBBg_09-T7Ho4-42" edge="1">
          <mxGeometry width="50" height="50" relative="1" as="geometry">
            <mxPoint x="180" y="330" as="sourcePoint" />
            <mxPoint x="230" y="280" as="targetPoint" />
            <Array as="points">
              <mxPoint x="237" y="310" />
              <mxPoint x="-30" y="310" />
            </Array>
          </mxGeometry>
        </mxCell>
        <mxCell id="O7UDizKWBBg_09-T7Ho4-47" value="AquaMonitor" style="swimlane;fontStyle=0;childLayout=stackLayout;horizontal=1;startSize=30;horizontalStack=0;resizeParent=1;resizeParentMax=0;resizeLast=0;collapsible=1;marginBottom=0;whiteSpace=wrap;html=1;" parent="1" vertex="1">
          <mxGeometry x="-340" y="360" width="140" height="140" as="geometry" />
        </mxCell>
        <mxCell id="O7UDizKWBBg_09-T7Ho4-48" value="Wprowadzanie danych o wodzie (Parametry chemiczne)" style="text;strokeColor=none;fillColor=none;align=left;verticalAlign=middle;spacingLeft=4;spacingRight=4;overflow=hidden;points=[[0,0.5],[1,0.5]];portConstraint=eastwest;rotatable=0;whiteSpace=wrap;html=1;" parent="O7UDizKWBBg_09-T7Ho4-47" vertex="1">
          <mxGeometry y="30" width="140" height="50" as="geometry" />
        </mxCell>
        <mxCell id="O7UDizKWBBg_09-T7Ho4-49" value="Sytuacje wyjątkowe (wygląd wizualny wody)" style="text;strokeColor=none;fillColor=none;align=left;verticalAlign=middle;spacingLeft=4;spacingRight=4;overflow=hidden;points=[[0,0.5],[1,0.5]];portConstraint=eastwest;rotatable=0;whiteSpace=wrap;html=1;" parent="O7UDizKWBBg_09-T7Ho4-47" vertex="1">
          <mxGeometry y="80" width="140" height="30" as="geometry" />
        </mxCell>
        <mxCell id="JS4E6NhKO0ZnO-5LUeNW-3" value="Adam" style="text;strokeColor=none;fillColor=none;align=left;verticalAlign=middle;spacingLeft=4;spacingRight=4;overflow=hidden;points=[[0,0.5],[1,0.5]];portConstraint=eastwest;rotatable=0;whiteSpace=wrap;html=1;" vertex="1" parent="O7UDizKWBBg_09-T7Ho4-47">
          <mxGeometry y="110" width="140" height="30" as="geometry" />
        </mxCell>
        <mxCell id="O7UDizKWBBg_09-T7Ho4-51" value="" style="endArrow=classic;html=1;rounded=0;fontSize=12;startSize=8;endSize=8;exitX=0;exitY=1;exitDx=0;exitDy=0;entryX=1;entryY=0;entryDx=0;entryDy=0;" parent="1" source="O7UDizKWBBg_09-T7Ho4-4" target="O7UDizKWBBg_09-T7Ho4-47" edge="1">
          <mxGeometry width="50" height="50" relative="1" as="geometry">
            <mxPoint x="180" y="330" as="sourcePoint" />
            <mxPoint x="230" y="280" as="targetPoint" />
            <Array as="points">
              <mxPoint x="200" y="300" />
              <mxPoint x="-200" y="300" />
            </Array>
          </mxGeometry>
        </mxCell>
        <mxCell id="O7UDizKWBBg_09-T7Ho4-52" value="AquaHistory" style="swimlane;fontStyle=0;childLayout=stackLayout;horizontal=1;startSize=30;horizontalStack=0;resizeParent=1;resizeParentMax=0;resizeLast=0;collapsible=1;marginBottom=0;whiteSpace=wrap;html=1;" parent="1" vertex="1">
          <mxGeometry x="-520" y="360" width="140" height="190" as="geometry" />
        </mxCell>
        <mxCell id="O7UDizKWBBg_09-T7Ho4-53" value="Generowanie / wyświetlanie historii akwarium w danym okresie czasowym" style="text;strokeColor=#9673a6;fillColor=#e1d5e7;align=left;verticalAlign=middle;spacingLeft=4;spacingRight=4;overflow=hidden;points=[[0,0.5],[1,0.5]];portConstraint=eastwest;rotatable=0;whiteSpace=wrap;html=1;" parent="O7UDizKWBBg_09-T7Ho4-52" vertex="1">
          <mxGeometry y="30" width="140" height="80" as="geometry" />
        </mxCell>
        <mxCell id="JS4E6NhKO0ZnO-5LUeNW-2" value="Mateusz" style="text;strokeColor=none;fillColor=none;align=left;verticalAlign=middle;spacingLeft=4;spacingRight=4;overflow=hidden;points=[[0,0.5],[1,0.5]];portConstraint=eastwest;rotatable=0;whiteSpace=wrap;html=1;" vertex="1" parent="O7UDizKWBBg_09-T7Ho4-52">
          <mxGeometry y="110" width="140" height="80" as="geometry" />
        </mxCell>
        <mxCell id="O7UDizKWBBg_09-T7Ho4-56" value="" style="endArrow=classic;html=1;rounded=0;fontSize=12;startSize=8;endSize=8;exitX=0;exitY=0.75;exitDx=0;exitDy=0;entryX=1;entryY=0;entryDx=0;entryDy=0;" parent="1" source="O7UDizKWBBg_09-T7Ho4-4" target="O7UDizKWBBg_09-T7Ho4-52" edge="1">
          <mxGeometry width="50" height="50" relative="1" as="geometry">
            <mxPoint x="180" y="330" as="sourcePoint" />
            <mxPoint x="230" y="280" as="targetPoint" />
            <Array as="points">
              <mxPoint x="-380" y="270" />
            </Array>
          </mxGeometry>
        </mxCell>
        <mxCell id="DEfrLelVzNfgMSH4W8rT-2" value="Legenda" style="swimlane;fontStyle=0;childLayout=stackLayout;horizontal=1;startSize=30;horizontalStack=0;resizeParent=1;resizeParentMax=0;resizeLast=0;collapsible=1;marginBottom=0;whiteSpace=wrap;html=1;" parent="1" vertex="1">
          <mxGeometry x="140" y="20" width="140" height="180" as="geometry" />
        </mxCell>
        <mxCell id="DEfrLelVzNfgMSH4W8rT-4" value="Niebieski - wyglad gotowy" style="text;strokeColor=#6c8ebf;fillColor=#dae8fc;align=left;verticalAlign=middle;spacingLeft=4;spacingRight=4;overflow=hidden;points=[[0,0.5],[1,0.5]];portConstraint=eastwest;rotatable=0;whiteSpace=wrap;html=1;" parent="DEfrLelVzNfgMSH4W8rT-2" vertex="1">
          <mxGeometry y="30" width="140" height="30" as="geometry" />
        </mxCell>
        <mxCell id="DEfrLelVzNfgMSH4W8rT-5" value="Fioletowy - backend gotowy" style="text;strokeColor=#9673a6;fillColor=#e1d5e7;align=left;verticalAlign=middle;spacingLeft=4;spacingRight=4;overflow=hidden;points=[[0,0.5],[1,0.5]];portConstraint=eastwest;rotatable=0;whiteSpace=wrap;html=1;" parent="DEfrLelVzNfgMSH4W8rT-2" vertex="1">
          <mxGeometry y="60" width="140" height="30" as="geometry" />
        </mxCell>
        <mxCell id="DEfrLelVzNfgMSH4W8rT-6" value="Zielony - moduł zrobiony" style="text;strokeColor=#82b366;fillColor=#d5e8d4;align=left;verticalAlign=middle;spacingLeft=4;spacingRight=4;overflow=hidden;points=[[0,0.5],[1,0.5]];portConstraint=eastwest;rotatable=0;whiteSpace=wrap;html=1;" parent="DEfrLelVzNfgMSH4W8rT-2" vertex="1">
          <mxGeometry y="90" width="140" height="30" as="geometry" />
        </mxCell>
        <mxCell id="FO-lzvLR-_04RQjkp_rY-1" value="Żółty- zrobic integracje back z front" style="text;strokeColor=#d6b656;fillColor=#fff2cc;align=left;verticalAlign=middle;spacingLeft=4;spacingRight=4;overflow=hidden;points=[[0,0.5],[1,0.5]];portConstraint=eastwest;rotatable=0;whiteSpace=wrap;html=1;" parent="DEfrLelVzNfgMSH4W8rT-2" vertex="1">
          <mxGeometry y="120" width="140" height="30" as="geometry" />
        </mxCell>
        <mxCell id="JS4E6NhKO0ZnO-5LUeNW-1" value="&lt;span style=&quot;font-weight: normal;&quot;&gt;Czerwony - do wywalenia&lt;/span&gt;" style="text;strokeColor=#b85450;fillColor=#f8cecc;align=left;verticalAlign=middle;spacingLeft=4;spacingRight=4;overflow=hidden;points=[[0,0.5],[1,0.5]];portConstraint=eastwest;rotatable=0;whiteSpace=wrap;html=1;fontStyle=1" vertex="1" parent="DEfrLelVzNfgMSH4W8rT-2">
          <mxGeometry y="150" width="140" height="30" as="geometry" />
        </mxCell>
        <mxCell id="JS4E6NhKO0ZnO-5LUeNW-8" value="Kreator sprzętu" style="swimlane;fontStyle=0;childLayout=stackLayout;horizontal=1;startSize=30;horizontalStack=0;resizeParent=1;resizeParentMax=0;resizeLast=0;collapsible=1;marginBottom=0;whiteSpace=wrap;html=1;" vertex="1" parent="1">
          <mxGeometry x="1010" y="360" width="140" height="150" as="geometry" />
        </mxCell>
        <mxCell id="JS4E6NhKO0ZnO-5LUeNW-9" value="Typ sprzetu" style="text;strokeColor=none;fillColor=none;align=left;verticalAlign=middle;spacingLeft=4;spacingRight=4;overflow=hidden;points=[[0,0.5],[1,0.5]];portConstraint=eastwest;rotatable=0;whiteSpace=wrap;html=1;" vertex="1" parent="JS4E6NhKO0ZnO-5LUeNW-8">
          <mxGeometry y="30" width="140" height="30" as="geometry" />
        </mxCell>
        <mxCell id="JS4E6NhKO0ZnO-5LUeNW-10" value="Parametry" style="text;strokeColor=none;fillColor=none;align=left;verticalAlign=middle;spacingLeft=4;spacingRight=4;overflow=hidden;points=[[0,0.5],[1,0.5]];portConstraint=eastwest;rotatable=0;whiteSpace=wrap;html=1;" vertex="1" parent="JS4E6NhKO0ZnO-5LUeNW-8">
          <mxGeometry y="60" width="140" height="30" as="geometry" />
        </mxCell>
        <mxCell id="JS4E6NhKO0ZnO-5LUeNW-13" value="Min max objętość" style="text;strokeColor=none;fillColor=none;align=left;verticalAlign=middle;spacingLeft=4;spacingRight=4;overflow=hidden;points=[[0,0.5],[1,0.5]];portConstraint=eastwest;rotatable=0;whiteSpace=wrap;html=1;" vertex="1" parent="JS4E6NhKO0ZnO-5LUeNW-8">
          <mxGeometry y="90" width="140" height="30" as="geometry" />
        </mxCell>
        <mxCell id="JS4E6NhKO0ZnO-5LUeNW-11" value="Adam" style="text;strokeColor=none;fillColor=none;align=left;verticalAlign=middle;spacingLeft=4;spacingRight=4;overflow=hidden;points=[[0,0.5],[1,0.5]];portConstraint=eastwest;rotatable=0;whiteSpace=wrap;html=1;" vertex="1" parent="JS4E6NhKO0ZnO-5LUeNW-8">
          <mxGeometry y="120" width="140" height="30" as="geometry" />
        </mxCell>
        <mxCell id="JS4E6NhKO0ZnO-5LUeNW-12" value="" style="endArrow=classic;html=1;rounded=0;fontSize=12;startSize=8;endSize=8;curved=0;exitX=1;exitY=0.5;exitDx=0;exitDy=0;entryX=0.5;entryY=0;entryDx=0;entryDy=0;" edge="1" parent="1" source="O7UDizKWBBg_09-T7Ho4-5" target="JS4E6NhKO0ZnO-5LUeNW-8">
          <mxGeometry width="50" height="50" relative="1" as="geometry">
            <mxPoint x="740" y="550" as="sourcePoint" />
            <mxPoint x="790" y="500" as="targetPoint" />
            <Array as="points">
              <mxPoint x="1080" y="260" />
            </Array>
          </mxGeometry>
        </mxCell>
      </root>
    </mxGraphModel>
  </diagram>
</mxfile>
